<svg width="100" height="100" viewBox="0 0 100 100" fill="none" xmlns="http://www.w3.org/2000/svg">
<path d="M20.8333 50C19.7283 50 18.6685 50.439 17.8871 51.2204C17.1057 52.0018 16.6667 53.0616 16.6667 54.1666V87.5C16.6667 88.605 17.1057 89.6649 17.8871 90.4463C18.6685 91.2277 19.7283 91.6666 20.8333 91.6666C21.9384 91.6666 22.9982 91.2277 23.7796 90.4463C24.561 89.6649 25 88.605 25 87.5V54.1666C25 53.0616 24.561 52.0018 23.7796 51.2204C22.9982 50.439 21.9384 50 20.8333 50ZM41.6667 8.33331C40.5616 8.33331 39.5018 8.7723 38.7204 9.5537C37.939 10.3351 37.5 11.3949 37.5 12.5V87.5C37.5 88.605 37.939 89.6649 38.7204 90.4463C39.5018 91.2277 40.5616 91.6666 41.6667 91.6666C42.7717 91.6666 43.8315 91.2277 44.6129 90.4463C45.3943 89.6649 45.8333 88.605 45.8333 87.5V12.5C45.8333 11.3949 45.3943 10.3351 44.6129 9.5537C43.8315 8.7723 42.7717 8.33331 41.6667 8.33331ZM83.3333 66.6666C82.2283 66.6666 81.1685 67.1056 80.3871 67.887C79.6057 68.6684 79.1667 69.7282 79.1667 70.8333V87.5C79.1667 88.605 79.6057 89.6649 80.3871 90.4463C81.1685 91.2277 82.2283 91.6666 83.3333 91.6666C84.4384 91.6666 85.4982 91.2277 86.2796 90.4463C87.061 89.6649 87.5 88.605 87.5 87.5V70.8333C87.5 69.7282 87.061 68.6684 86.2796 67.887C85.4982 67.1056 84.4384 66.6666 83.3333 66.6666ZM62.5 33.3333C61.3949 33.3333 60.3351 33.7723 59.5537 34.5537C58.7723 35.3351 58.3333 36.3949 58.3333 37.5V87.5C58.3333 88.605 58.7723 89.6649 59.5537 90.4463C60.3351 91.2277 61.3949 91.6666 62.5 91.6666C63.6051 91.6666 64.6649 91.2277 65.4463 90.4463C66.2277 89.6649 66.6667 88.605 66.6667 87.5V37.5C66.6667 36.3949 66.2277 35.3351 65.4463 34.5537C64.6649 33.7723 63.6051 33.3333 62.5 33.3333Z" fill="white"/>
</svg>
