<svg width="20" height="20" viewBox="0 0 20 20" fill="none" xmlns="http://www.w3.org/2000/svg">
<path d="M9.99996 11.667C10.1648 11.667 10.3259 11.6181 10.4629 11.5266C10.6 11.435 10.7068 11.3048 10.7699 11.1526C10.8329 11.0003 10.8494 10.8327 10.8173 10.6711C10.7851 10.5094 10.7058 10.3609 10.5892 10.2444C10.4727 10.1279 10.3242 10.0485 10.1625 10.0163C10.0009 9.98418 9.83333 10.0007 9.68106 10.0638C9.52878 10.1268 9.39864 10.2336 9.30707 10.3707C9.2155 10.5077 9.16663 10.6688 9.16663 10.8337C9.16663 11.0547 9.25442 11.2666 9.4107 11.4229C9.56698 11.5792 9.77895 11.667 9.99996 11.667ZM14.1666 11.667C14.3314 11.667 14.4926 11.6181 14.6296 11.5266C14.7666 11.435 14.8735 11.3048 14.9365 11.1526C14.9996 11.0003 15.0161 10.8327 14.9839 10.6711C14.9518 10.5094 14.8724 10.3609 14.7559 10.2444C14.6393 10.1279 14.4909 10.0485 14.3292 10.0163C14.1676 9.98418 14 10.0007 13.8477 10.0638C13.6955 10.1268 13.5653 10.2336 13.4737 10.3707C13.3822 10.5077 13.3333 10.6688 13.3333 10.8337C13.3333 11.0547 13.4211 11.2666 13.5774 11.4229C13.7337 11.5792 13.9456 11.667 14.1666 11.667ZM9.99996 15.0003C10.1648 15.0003 10.3259 14.9515 10.4629 14.8599C10.6 14.7683 10.7068 14.6382 10.7699 14.4859C10.8329 14.3336 10.8494 14.1661 10.8173 14.0044C10.7851 13.8428 10.7058 13.6943 10.5892 13.5777C10.4727 13.4612 10.3242 13.3818 10.1625 13.3497C10.0009 13.3175 9.83333 13.334 9.68106 13.3971C9.52878 13.4602 9.39864 13.567 9.30707 13.704C9.2155 13.8411 9.16663 14.0022 9.16663 14.167C9.16663 14.388 9.25442 14.6 9.4107 14.7562C9.56698 14.9125 9.77895 15.0003 9.99996 15.0003ZM14.1666 15.0003C14.3314 15.0003 14.4926 14.9515 14.6296 14.8599C14.7666 14.7683 14.8735 14.6382 14.9365 14.4859C14.9996 14.3336 15.0161 14.1661 14.9839 14.0044C14.9518 13.8428 14.8724 13.6943 14.7559 13.5777C14.6393 13.4612 14.4909 13.3818 14.3292 13.3497C14.1676 13.3175 14 13.334 13.8477 13.3971C13.6955 13.4602 13.5653 13.567 13.4737 13.704C13.3822 13.8411 13.3333 14.0022 13.3333 14.167C13.3333 14.388 13.4211 14.6 13.5774 14.7562C13.7337 14.9125 13.9456 15.0003 14.1666 15.0003ZM5.83329 11.667C5.99811 11.667 6.15923 11.6181 6.29627 11.5266C6.43331 11.435 6.54012 11.3048 6.60319 11.1526C6.66627 11.0003 6.68277 10.8327 6.65061 10.6711C6.61846 10.5094 6.53909 10.3609 6.42255 10.2444C6.306 10.1279 6.15752 10.0485 5.99587 10.0163C5.83422 9.98418 5.66666 10.0007 5.51439 10.0638C5.36212 10.1268 5.23197 10.2336 5.1404 10.3707C5.04883 10.5077 4.99996 10.6688 4.99996 10.8337C4.99996 11.0547 5.08776 11.2666 5.24404 11.4229C5.40032 11.5792 5.61228 11.667 5.83329 11.667ZM15.8333 3.33366H15V2.50033C15 2.27931 14.9122 2.06735 14.7559 1.91107C14.5996 1.75479 14.3876 1.66699 14.1666 1.66699C13.9456 1.66699 13.7337 1.75479 13.5774 1.91107C13.4211 2.06735 13.3333 2.27931 13.3333 2.50033V3.33366H6.66663V2.50033C6.66663 2.27931 6.57883 2.06735 6.42255 1.91107C6.26627 1.75479 6.05431 1.66699 5.83329 1.66699C5.61228 1.66699 5.40032 1.75479 5.24404 1.91107C5.08776 2.06735 4.99996 2.27931 4.99996 2.50033V3.33366H4.16663C3.50358 3.33366 2.8677 3.59705 2.39886 4.06589C1.93002 4.53473 1.66663 5.17062 1.66663 5.83366V15.8337C1.66663 16.4967 1.93002 17.1326 2.39886 17.6014C2.8677 18.0703 3.50358 18.3337 4.16663 18.3337H15.8333C16.4963 18.3337 17.1322 18.0703 17.6011 17.6014C18.0699 17.1326 18.3333 16.4967 18.3333 15.8337V5.83366C18.3333 5.17062 18.0699 4.53473 17.6011 4.06589C17.1322 3.59705 16.4963 3.33366 15.8333 3.33366V3.33366ZM16.6666 15.8337C16.6666 16.0547 16.5788 16.2666 16.4225 16.4229C16.2663 16.5792 16.0543 16.667 15.8333 16.667H4.16663C3.94561 16.667 3.73365 16.5792 3.57737 16.4229C3.42109 16.2666 3.33329 16.0547 3.33329 15.8337V8.33366H16.6666V15.8337ZM16.6666 6.66699H3.33329V5.83366C3.33329 5.61265 3.42109 5.40068 3.57737 5.2444C3.73365 5.08812 3.94561 5.00033 4.16663 5.00033H15.8333C16.0543 5.00033 16.2663 5.08812 16.4225 5.2444C16.5788 5.40068 16.6666 5.61265 16.6666 5.83366V6.66699ZM5.83329 15.0003C5.99811 15.0003 6.15923 14.9515 6.29627 14.8599C6.43331 14.7683 6.54012 14.6382 6.60319 14.4859C6.66627 14.3336 6.68277 14.1661 6.65061 14.0044C6.61846 13.8428 6.53909 13.6943 6.42255 13.5777C6.306 13.4612 6.15752 13.3818 5.99587 13.3497C5.83422 13.3175 5.66666 13.334 5.51439 13.3971C5.36212 13.4602 5.23197 13.567 5.1404 13.704C5.04883 13.8411 4.99996 14.0022 4.99996 14.167C4.99996 14.388 5.08776 14.6 5.24404 14.7562C5.40032 14.9125 5.61228 15.0003 5.83329 15.0003Z" fill="#21549E"/>
</svg>
