<svg width="100" height="100" viewBox="0 0 100 100" fill="none" xmlns="http://www.w3.org/2000/svg">
<path d="M71.2084 11.75C67.3762 8.59829 62.8889 6.34181 58.0736 5.1452C53.2583 3.9486 48.2367 3.84206 43.375 4.83335C36.9016 6.14094 30.9625 9.34199 26.3112 14.0304C21.6599 18.7187 18.5062 24.6831 17.25 31.1667C16.3327 36.028 16.4994 41.0319 17.7382 45.8214C18.977 50.6109 21.2574 55.0681 24.4167 58.875C27.3487 62.1836 29.0293 66.4147 29.1667 70.8334V83.3334C29.1667 86.6486 30.4837 89.828 32.8279 92.1722C35.1721 94.5164 38.3515 95.8334 41.6667 95.8334H58.3334C61.6486 95.8334 64.828 94.5164 67.1722 92.1722C69.5164 89.828 70.8334 86.6486 70.8334 83.3334V71.625C70.9732 66.7466 72.7655 62.0602 75.9167 58.3334C81.438 51.5033 84.0407 42.7701 83.1591 34.0318C82.2774 25.2935 77.9828 17.2562 71.2084 11.6667V11.75ZM62.5 83.3334C62.5 84.4384 62.061 85.4982 61.2796 86.2796C60.4982 87.061 59.4384 87.5 58.3334 87.5H41.6667C40.5616 87.5 39.5018 87.061 38.7204 86.2796C37.939 85.4982 37.5 84.4384 37.5 83.3334V79.1667H62.5V83.3334ZM69.4584 53.1667C65.2688 58.1359 62.8245 64.3418 62.5 70.8334H54.1667V58.3334C54.1667 57.2283 53.7277 56.1685 52.9463 55.3871C52.1649 54.6057 51.1051 54.1667 50 54.1667C48.895 54.1667 47.8351 54.6057 47.0537 55.3871C46.2723 56.1685 45.8334 57.2283 45.8334 58.3334V70.8334H37.5C37.3901 64.4504 35.029 58.3115 30.8334 53.5C28.0652 50.1833 26.2037 46.2059 25.4305 41.9556C24.6572 37.7053 24.9986 33.3272 26.4212 29.2481C27.8439 25.169 30.2993 21.5281 33.548 18.6805C36.7968 15.833 40.728 13.8759 44.9584 13C48.594 12.2515 52.3507 12.3219 55.9557 13.2061C59.5608 14.0904 62.9236 15.7664 65.8002 18.1123C68.6768 20.4583 70.9949 23.4153 72.5862 26.7688C74.1775 30.1224 75.0021 33.7881 75 37.5C75.0309 43.2078 73.0712 48.7478 69.4584 53.1667V53.1667Z" fill="white"/>
</svg>
