<svg width="100" height="100" viewBox="0 0 100 100" fill="none" xmlns="http://www.w3.org/2000/svg">
<path d="M66.6667 42.7916L45.8333 30.75C44.5671 30.0189 43.1309 29.6339 41.6688 29.6335C40.2067 29.6331 38.7703 30.0174 37.5037 30.7478C36.2371 31.4782 35.185 32.529 34.453 33.7946C33.721 35.0603 33.3348 36.4962 33.3333 37.9583V62.0416C33.3348 63.503 33.7206 64.9383 34.4519 66.2035C35.1833 67.4687 36.2344 68.5193 37.5 69.25C38.7668 69.9814 40.2039 70.3664 41.6667 70.3664C43.1295 70.3664 44.5665 69.9814 45.8333 69.25L66.6667 57.2083C67.9295 56.4758 68.9777 55.4243 69.7064 54.1593C70.435 52.8942 70.8186 51.4599 70.8186 50C70.8186 48.5401 70.435 47.1058 69.7064 45.8407C68.9777 44.5756 67.9295 43.5242 66.6667 42.7916ZM62.5 50L41.6667 62.0416V37.9583L62.5 50ZM50 8.33331C41.7591 8.33331 33.7033 10.777 26.8512 15.3554C19.9992 19.9338 14.6587 26.4412 11.505 34.0548C8.35137 41.6684 7.52623 50.0462 9.13395 58.1287C10.7417 66.2113 14.71 73.6356 20.5372 79.4628C26.3644 85.2899 33.7887 89.2583 41.8712 90.866C49.9538 92.4738 58.3316 91.6486 65.9452 88.495C73.5587 85.3413 80.0662 80.0008 84.6446 73.1487C89.223 66.2967 91.6667 58.2409 91.6667 50C91.6667 44.5282 90.5889 39.1101 88.495 34.0548C86.401 28.9996 83.3319 24.4063 79.4628 20.5372C75.5937 16.6681 71.0004 13.5989 65.9452 11.505C60.8899 9.41105 55.4718 8.33331 50 8.33331ZM50 83.3333C43.4073 83.3333 36.9626 81.3783 31.481 77.7156C25.9994 74.0529 21.7269 68.847 19.204 62.7561C16.6811 56.6652 16.021 49.963 17.3072 43.497C18.5933 37.0309 21.768 31.0915 26.4298 26.4298C31.0915 21.768 37.031 18.5933 43.497 17.3071C49.963 16.021 56.6652 16.6811 62.7561 19.204C68.847 21.7269 74.0529 25.9993 77.7157 31.481C81.3784 36.9626 83.3333 43.4073 83.3333 50C83.3333 58.8405 79.8214 67.319 73.5702 73.5702C67.319 79.8214 58.8406 83.3333 50 83.3333Z" fill="#0077B5"/>
</svg>
