<svg width="22" height="23" viewBox="0 0 22 23" fill="none" xmlns="http://www.w3.org/2000/svg">
<g clip-path="url(#clip0_197_1129)">
<path d="M20.1633 0.912231H1.81425C1.18596 0.912609 0.676632 1.42219 0.676758 2.05074V20.3997C0.677135 21.028 1.18672 21.5374 1.81526 21.5372H11.6942V13.5612H9.01538V10.4392H11.6942V8.14168C11.6942 5.47733 13.3208 4.02713 15.6975 4.02713C16.8359 4.02713 17.8141 4.11198 18.0992 4.14987V6.93457H16.4603C15.1673 6.93457 14.9169 7.54902 14.9169 8.45086V10.4392H18.0086L17.6058 13.5612H14.9169V21.5372H20.1633C20.7919 21.5374 21.3016 21.0279 21.3018 20.3992C21.3018 20.3991 21.3018 20.399 21.3018 20.3987V2.04973C21.3015 1.42144 20.7918 0.912106 20.1633 0.912231Z" fill="white"/>
</g>
<defs>
<clipPath id="clip0_197_1129">
<rect width="22" height="22" fill="white" transform="translate(0 0.235474)"/>
</clipPath>
</defs>
</svg>
