<svg width="21" height="23" viewBox="0 0 21 23" fill="none" xmlns="http://www.w3.org/2000/svg">
<path d="M18.9422 7.85595C18.9024 6.98009 18.7563 6.37795 18.547 5.85619C18.331 5.30235 17.9988 4.8065 17.5635 4.3943C17.1383 3.97568 16.6233 3.6504 16.0586 3.44436C15.5171 3.24147 14.8992 3.09983 13.9955 3.06122C13.0852 3.01933 12.7962 3.00964 10.4873 3.00964C8.17832 3.00964 7.88932 3.01933 6.98233 3.05795C6.07872 3.09656 5.45749 3.23832 4.91932 3.44109C4.3478 3.6504 3.83623 3.97241 3.41097 4.3943C2.97908 4.8065 2.64362 5.30562 2.43092 5.85305C2.22159 6.37795 2.07547 6.97682 2.03563 7.85267C1.99241 8.73507 1.98242 9.01519 1.98242 11.2532C1.98242 13.4912 1.99241 13.7713 2.03225 14.6504C2.0721 15.5263 2.21835 16.1284 2.42767 16.6502C2.64362 17.204 2.97908 17.6999 3.41097 18.1121C3.83623 18.5307 4.35118 18.856 4.91595 19.062C5.45749 19.2649 6.07535 19.4065 6.97909 19.4452C7.88594 19.4839 8.17508 19.4935 10.484 19.4935C12.7929 19.4935 13.0819 19.4839 13.9889 19.4452C14.8925 19.4065 15.5138 19.2649 16.0519 19.062C17.1948 18.6337 18.0985 17.7579 18.5403 16.6502C18.7495 16.1253 18.8958 15.5263 18.9356 14.6504C18.9755 13.7713 18.9855 13.4912 18.9855 11.2532C18.9855 9.01519 18.9821 8.73507 18.9422 7.85595ZM17.4108 14.586C17.3742 15.3911 17.2347 15.8258 17.1184 16.1156C16.8327 16.8337 16.2446 17.4036 15.5038 17.6806C15.2048 17.7933 14.753 17.9285 13.9257 17.9639C13.0287 18.0026 12.7597 18.0122 10.4906 18.0122C8.22154 18.0122 7.94914 18.0026 7.05539 17.9639C6.22484 17.9285 5.77635 17.7933 5.47735 17.6806C5.10866 17.5485 4.77307 17.3392 4.50067 17.0655C4.21829 16.7982 4.00234 16.4762 3.86608 16.1189C3.74981 15.829 3.6103 15.3911 3.57383 14.5893C3.53386 13.7199 3.524 13.459 3.524 11.2596C3.524 9.06022 3.53386 8.7962 3.57383 7.93003C3.6103 7.125 3.74981 6.69028 3.86608 6.40047C4.00234 6.04298 4.21829 5.71783 4.50405 5.45367C4.77969 5.17996 5.11191 4.97065 5.48072 4.8387C5.77972 4.726 6.23159 4.59078 7.05877 4.55531C7.95576 4.51669 8.22491 4.50701 10.4939 4.50701C12.7663 4.50701 13.0354 4.51669 13.9291 4.55531C14.7597 4.59078 15.2081 4.726 15.5071 4.8387C15.8758 4.97065 16.2114 5.17996 16.4838 5.45367C16.7662 5.72097 16.9822 6.04298 17.1184 6.40047C17.2347 6.69028 17.3742 7.12814 17.4108 7.93003C17.4506 8.79947 17.4606 9.06022 17.4606 11.2596C17.4606 13.459 17.4506 13.7166 17.4108 14.586Z" fill="white"/>
<path d="M10.4873 7.01868C8.07551 7.01868 6.11865 8.91529 6.11865 11.2532C6.11865 13.591 8.07551 15.4876 10.4873 15.4876C12.8993 15.4876 14.856 13.591 14.856 11.2532C14.856 8.91529 12.8993 7.01868 10.4873 7.01868ZM10.4873 14C8.92267 14 7.65348 12.7699 7.65348 11.2532C7.65348 9.73642 8.92267 8.50635 10.4873 8.50635C12.0522 8.50635 13.3212 9.73642 13.3212 11.2532C13.3212 12.7699 12.0522 14 10.4873 14Z" fill="white"/>
<path d="M16.0487 6.85123C16.0487 7.39714 15.592 7.83979 15.0287 7.83979C14.4655 7.83979 14.0088 7.39714 14.0088 6.85123C14.0088 6.30519 14.4655 5.86267 15.0287 5.86267C15.592 5.86267 16.0487 6.30519 16.0487 6.85123Z" fill="white"/>
</svg>
