<svg width="22" height="23" viewBox="0 0 22 23" fill="none" xmlns="http://www.w3.org/2000/svg">
<path d="M3.17797 1.35266C1.66558 1.35266 0.676758 2.34577 0.676758 3.65107C0.676758 4.92754 1.63613 5.94897 3.11993 5.94897H3.14864C4.6906 5.94897 5.65022 4.92754 5.65022 3.65107C5.62139 2.34577 4.6906 1.35266 3.17797 1.35266Z" fill="white"/>
<path d="M0.937988 7.76514H5.35932V21.0669H0.937988V7.76514Z" fill="white"/>
<path d="M16.2116 7.45288C13.8265 7.45288 12.2271 9.69414 12.2271 9.69414V7.76508H7.80566V21.0668H12.2269V13.6386C12.2269 13.241 12.2557 12.8439 12.3725 12.5595C12.6921 11.7655 13.4195 10.9428 14.641 10.9428C16.2408 10.9428 16.8807 12.1626 16.8807 13.9508V21.0668H21.3017V13.4398C21.3017 9.35412 19.1203 7.45288 16.2116 7.45288Z" fill="white"/>
</svg>
