<svg width="22" height="23" viewBox="0 0 22 23" fill="none" xmlns="http://www.w3.org/2000/svg">
<g clip-path="url(#clip0_1867_256)">
<path d="M20.1633 1.4519H1.81425C1.18596 1.45228 0.676632 1.96186 0.676758 2.59041V20.9394C0.677135 21.5677 1.18672 22.077 1.81526 22.0769H11.6942V14.1008H9.01538V10.9789H11.6942V8.68135C11.6942 6.017 13.3208 4.5668 15.6975 4.5668C16.8359 4.5668 17.8141 4.65165 18.0992 4.68954V7.47424H16.4603C15.1673 7.47424 14.9169 8.08869 14.9169 8.99053V10.9789H18.0086L17.6058 14.1008H14.9169V22.0769H20.1633C20.7919 22.077 21.3016 21.5676 21.3018 20.9389C21.3018 20.9388 21.3018 20.9387 21.3018 20.9384V2.5894C21.3015 1.96111 20.7918 1.45178 20.1633 1.4519Z" fill="#0045BF"/>
</g>
<defs>
<clipPath id="clip0_1867_256">
<rect width="22" height="22" fill="white" transform="translate(0 0.775146)"/>
</clipPath>
</defs>
</svg>
