<svg width="21" height="23" viewBox="0 0 21 23" fill="none" xmlns="http://www.w3.org/2000/svg">
<path d="M18.9422 8.39562C18.9024 7.51977 18.7563 6.91763 18.547 6.39586C18.331 5.84203 17.9988 5.34618 17.5635 4.93397C17.1383 4.51536 16.6233 4.19007 16.0586 3.98403C15.5171 3.78114 14.8992 3.63951 13.9955 3.60089C13.0852 3.559 12.7962 3.54932 10.4873 3.54932C8.17832 3.54932 7.88932 3.559 6.98233 3.59762C6.07872 3.63623 5.45749 3.778 4.91932 3.98076C4.3478 4.19007 3.83623 4.51209 3.41097 4.93397C2.97908 5.34618 2.64362 5.8453 2.43092 6.39272C2.22159 6.91763 2.07547 7.5165 2.03563 8.39235C1.99241 9.27474 1.98242 9.55487 1.98242 11.7929C1.98242 14.0309 1.99241 14.311 2.03225 15.1901C2.0721 16.066 2.21835 16.6681 2.42767 17.1899C2.64362 17.7437 2.97908 18.2395 3.41097 18.6517C3.83623 19.0704 4.35118 19.3956 4.91595 19.6017C5.45749 19.8046 6.07535 19.9462 6.97909 19.9848C7.88594 20.0236 8.17508 20.0331 10.484 20.0331C12.7929 20.0331 13.0819 20.0236 13.9889 19.9848C14.8925 19.9462 15.5138 19.8046 16.0519 19.6017C17.1948 19.1734 18.0985 18.2975 18.5403 17.1899C18.7495 16.6649 18.8958 16.066 18.9356 15.1901C18.9755 14.311 18.9855 14.0309 18.9855 11.7929C18.9855 9.55487 18.9821 9.27474 18.9422 8.39562ZM17.4108 15.1257C17.3742 15.9307 17.2347 16.3654 17.1184 16.6553C16.8327 17.3734 16.2446 17.9433 15.5038 18.2203C15.2048 18.333 14.753 18.4682 13.9257 18.5036C13.0287 18.5423 12.7597 18.5519 10.4906 18.5519C8.22154 18.5519 7.94914 18.5423 7.05539 18.5036C6.22484 18.4682 5.77635 18.333 5.47735 18.2203C5.10866 18.0882 4.77307 17.8789 4.50067 17.6052C4.21829 17.3379 4.00234 17.0159 3.86608 16.6585C3.74981 16.3687 3.6103 15.9307 3.57383 15.129C3.53386 14.2595 3.524 13.9987 3.524 11.7993C3.524 9.5999 3.53386 9.33587 3.57383 8.46971C3.6103 7.66467 3.74981 7.22995 3.86608 6.94014C4.00234 6.58266 4.21829 6.2575 4.50405 5.99335C4.77969 5.71964 5.11191 5.51033 5.48072 5.37838C5.77972 5.26567 6.23159 5.13045 7.05877 5.09498C7.95576 5.05636 8.22491 5.04668 10.4939 5.04668C12.7663 5.04668 13.0354 5.05636 13.9291 5.09498C14.7597 5.13045 15.2081 5.26567 15.5071 5.37838C15.8758 5.51033 16.2114 5.71964 16.4838 5.99335C16.7662 6.26064 16.9822 6.58266 17.1184 6.94014C17.2347 7.22995 17.3742 7.66782 17.4108 8.46971C17.4506 9.33914 17.4606 9.5999 17.4606 11.7993C17.4606 13.9987 17.4506 14.2563 17.4108 15.1257Z" fill="#0045BF"/>
<path d="M10.4873 7.55835C8.07551 7.55835 6.11865 9.45496 6.11865 11.7928C6.11865 14.1307 8.07551 16.0273 10.4873 16.0273C12.8993 16.0273 14.856 14.1307 14.856 11.7928C14.856 9.45496 12.8993 7.55835 10.4873 7.55835ZM10.4873 14.5396C8.92267 14.5396 7.65348 13.3096 7.65348 11.7928C7.65348 10.2761 8.92267 9.04603 10.4873 9.04603C12.0522 9.04603 13.3212 10.2761 13.3212 11.7928C13.3212 13.3096 12.0522 14.5396 10.4873 14.5396Z" fill="#0045BF"/>
<path d="M16.0487 7.3909C16.0487 7.93682 15.592 8.37946 15.0287 8.37946C14.4655 8.37946 14.0088 7.93682 14.0088 7.3909C14.0088 6.84486 14.4655 6.40234 15.0287 6.40234C15.592 6.40234 16.0487 6.84486 16.0487 7.3909Z" fill="#0045BF"/>
</svg>
