<svg width="22" height="23" viewBox="0 0 22 23" fill="none" xmlns="http://www.w3.org/2000/svg">
<path d="M3.17797 1.89233C1.66558 1.89233 0.676758 2.88544 0.676758 4.19074C0.676758 5.46722 1.63613 6.48865 3.11993 6.48865H3.14864C4.6906 6.48865 5.65022 5.46722 5.65022 4.19074C5.62139 2.88544 4.6906 1.89233 3.17797 1.89233Z" fill="#0045BF"/>
<path d="M0.937988 8.30481H5.35932V21.6066H0.937988V8.30481Z" fill="#0045BF"/>
<path d="M16.2116 7.99255C13.8265 7.99255 12.2271 10.2338 12.2271 10.2338V8.30475H7.80566V21.6065H12.2269V14.1783C12.2269 13.7806 12.2557 13.3836 12.3725 13.0992C12.6921 12.3051 13.4195 11.4825 14.641 11.4825C16.2408 11.4825 16.8807 12.7023 16.8807 14.4905V21.6065H21.3017V13.9795C21.3017 9.8938 19.1203 7.99255 16.2116 7.99255Z" fill="#0045BF"/>
</svg>
